<svg width="49" height="40" viewBox="0 0 49 40" fill="none" xmlns="http://www.w3.org/2000/svg">
<g clip-path="url(#clip0_167_2)">
<path d="M40.9124 28.095C46.1217 24.3 49.0004 20 49.0004 20C49.0004 20 39.8129 6.25 24.5004 6.25C21.5589 6.25628 18.6505 6.75666 15.9561 7.72L18.3142 9.6475C20.2978 9.06062 22.3905 8.75701 24.5004 8.75C30.9929 8.75 36.3799 11.67 40.3274 14.8925C42.2293 16.4502 43.9327 18.1615 45.4112 20C45.2356 20.2167 45.0365 20.4567 44.814 20.72C43.7881 21.92 42.2721 23.52 40.3274 25.1075C39.8231 25.5208 39.2954 25.9258 38.7441 26.3225L40.9124 28.095Z" fill="#2E4756"/>
<path d="M34.5973 22.94C35.2807 21.3796 35.4073 19.6929 34.9623 18.0761C34.5172 16.4592 33.5189 14.9788 32.0835 13.807C30.6481 12.6353 28.8346 11.8204 26.854 11.4571C24.8734 11.0938 22.8072 11.1971 20.8957 11.755L23.4161 13.8125C24.5931 13.675 25.7931 13.7631 26.921 14.0699C28.049 14.3767 29.074 14.8937 29.9147 15.58C30.7554 16.2663 31.3888 17.103 31.7646 18.0238C32.1404 18.9446 32.2484 19.9242 32.0799 20.885L34.5973 22.94ZM25.5844 26.1875L28.1017 28.2425C26.1902 28.8004 24.124 28.9037 22.1434 28.5404C20.1628 28.1771 18.3493 27.3622 16.9139 26.1905C15.4785 25.0187 14.4802 23.5383 14.0351 21.9214C13.5901 20.3046 13.7167 18.6179 14.4001 17.0575L16.9205 19.115C16.7521 20.0758 16.86 21.0554 17.2359 21.9762C17.6117 22.897 18.2451 23.7337 19.0858 24.42C19.9265 25.1063 20.9514 25.6233 22.0794 25.9301C23.2074 26.2369 24.4074 26.325 25.5844 26.1875Z" fill="#2E4756"/>
<path d="M10.2594 13.675C9.70812 14.075 9.17933 14.4808 8.673 14.8925C6.77108 16.4502 5.06777 18.1615 3.58925 20L4.18644 20.72C5.21237 21.92 6.72831 23.52 8.673 25.1075C12.6206 28.33 18.0106 31.25 24.5 31.25C26.6928 31.25 28.7569 30.9175 30.6863 30.35L33.0444 32.28C30.35 33.2433 27.4415 33.7437 24.5 33.75C9.1875 33.75 0 20 0 20C0 20 2.87569 15.6975 8.08806 11.905L10.2563 13.6775L10.2594 13.675ZM41.7909 35.885L5.04088 5.88499L7.20913 4.11499L43.9591 34.115L41.7909 35.885Z" fill="#2E4756"/>
</g>
<defs>
<clipPath id="clip0_167_2">
<rect width="49" height="40" fill="white"/>
</clipPath>
</defs>
</svg>
