<svg width="42" height="34" viewBox="0 0 42 34" fill="none" xmlns="http://www.w3.org/2000/svg">
<path d="M42 17C42 17 34.125 5.3125 21 5.3125C7.875 5.3125 0 17 0 17C0 17 7.875 28.6875 21 28.6875C34.125 28.6875 42 17 42 17ZM3.07912 17C4.34643 15.4372 5.80641 13.9827 7.43663 12.6586C10.815 9.9195 15.435 7.4375 21 7.4375C26.565 7.4375 31.1824 9.9195 34.566 12.6586C36.1962 13.9827 37.6562 15.4372 38.9235 17C38.773 17.1842 38.6024 17.3882 38.4116 17.612C37.5322 18.632 36.2329 19.992 34.566 21.3414C31.1824 24.0805 26.5624 26.5625 21 26.5625C15.4376 26.5625 10.8176 24.0805 7.434 21.3414C5.80379 20.0173 4.34643 18.5628 3.07912 17Z" fill="#2E4756"/>
<path d="M21 11.6875C19.2595 11.6875 17.5903 12.2472 16.3596 13.2435C15.1289 14.2398 14.4375 15.591 14.4375 17C14.4375 18.409 15.1289 19.7602 16.3596 20.7565C17.5903 21.7528 19.2595 22.3125 21 22.3125C22.7405 22.3125 24.4097 21.7528 25.6404 20.7565C26.8711 19.7602 27.5625 18.409 27.5625 17C27.5625 15.591 26.8711 14.2398 25.6404 13.2435C24.4097 12.2472 22.7405 11.6875 21 11.6875ZM11.8125 17C11.8125 15.0275 12.7805 13.1357 14.5035 11.7409C16.2264 10.3461 18.5633 9.5625 21 9.5625C23.4367 9.5625 25.7736 10.3461 27.4965 11.7409C29.2195 13.1357 30.1875 15.0275 30.1875 17C30.1875 18.9725 29.2195 20.8643 27.4965 22.2591C25.7736 23.6539 23.4367 24.4375 21 24.4375C18.5633 24.4375 16.2264 23.6539 14.5035 22.2591C12.7805 20.8643 11.8125 18.9725 11.8125 17Z" fill="#2E4756"/>
</svg>
