<svg width="47" height="47" viewBox="0 0 47 47" fill="none" xmlns="http://www.w3.org/2000/svg">
<path d="M23.5 2.9375C25.0581 2.9375 26.5525 3.55647 27.6543 4.65825C28.756 5.76002 29.375 7.25435 29.375 8.8125V20.5625H17.625V8.8125C17.625 7.25435 18.244 5.76002 19.3457 4.65825C20.4475 3.55647 21.9419 2.9375 23.5 2.9375ZM32.3125 20.5625V8.8125C32.3125 6.47528 31.384 4.23379 29.7314 2.58112C28.0787 0.928457 25.8372 0 23.5 0C21.1628 0 18.9213 0.928457 17.2686 2.58112C15.616 4.23379 14.6875 6.47528 14.6875 8.8125V20.5625C13.1294 20.5625 11.635 21.1815 10.5332 22.2832C9.43147 23.385 8.8125 24.8794 8.8125 26.4375V41.125C8.8125 42.6831 9.43147 44.1775 10.5332 45.2793C11.635 46.381 13.1294 47 14.6875 47H32.3125C33.8706 47 35.365 46.381 36.4668 45.2793C37.5685 44.1775 38.1875 42.6831 38.1875 41.125V26.4375C38.1875 24.8794 37.5685 23.385 36.4668 22.2832C35.365 21.1815 33.8706 20.5625 32.3125 20.5625ZM14.6875 23.5H32.3125C33.0916 23.5 33.8387 23.8095 34.3896 24.3604C34.9405 24.9113 35.25 25.6584 35.25 26.4375V41.125C35.25 41.9041 34.9405 42.6512 34.3896 43.2021C33.8387 43.753 33.0916 44.0625 32.3125 44.0625H14.6875C13.9084 44.0625 13.1613 43.753 12.6104 43.2021C12.0595 42.6512 11.75 41.9041 11.75 41.125V26.4375C11.75 25.6584 12.0595 24.9113 12.6104 24.3604C13.1613 23.8095 13.9084 23.5 14.6875 23.5Z" fill="#2E4756"/>
</svg>
