<svg width="41" height="38" viewBox="0 0 41 38" fill="none" xmlns="http://www.w3.org/2000/svg">
<path d="M20.5 19C23.2185 19 25.8256 17.9991 27.7478 16.2175C29.6701 14.4359 30.75 12.0196 30.75 9.5C30.75 6.98044 29.6701 4.56408 27.7478 2.78249C25.8256 1.00089 23.2185 0 20.5 0C17.7815 0 15.1744 1.00089 13.2522 2.78249C11.3299 4.56408 10.25 6.98044 10.25 9.5C10.25 12.0196 11.3299 14.4359 13.2522 16.2175C15.1744 17.9991 17.7815 19 20.5 19ZM27.3333 9.5C27.3333 11.1797 26.6134 12.7906 25.3319 13.9783C24.0504 15.1661 22.3123 15.8333 20.5 15.8333C18.6877 15.8333 16.9496 15.1661 15.6681 13.9783C14.3866 12.7906 13.6667 11.1797 13.6667 9.5C13.6667 7.8203 14.3866 6.20939 15.6681 5.02166C16.9496 3.83393 18.6877 3.16667 20.5 3.16667C22.3123 3.16667 24.0504 3.83393 25.3319 5.02166C26.6134 6.20939 27.3333 7.8203 27.3333 9.5ZM41 34.8333C41 38 37.5833 38 37.5833 38H3.41667C3.41667 38 0 38 0 34.8333C0 31.6667 3.41667 22.1667 20.5 22.1667C37.5833 22.1667 41 31.6667 41 34.8333ZM37.5833 34.8207C37.5799 34.0417 37.0572 31.6983 34.7407 29.5513C32.513 27.4867 28.3208 25.3333 20.5 25.3333C12.6758 25.3333 8.487 27.4867 6.25933 29.5513C3.94283 31.6983 3.4235 34.0417 3.41667 34.8207H37.5833Z" fill="#2E4756"/>
</svg>
